<svg width="24" height="24" viewBox="0 0 24 24" fill="none" xmlns="http://www.w3.org/2000/svg">
<path d="M9.78889 17.4501L11.1352 14.1752H14.0801C15.1605 14.1752 16.1131 13.4045 16.2735 12.3361C16.3202 12.027 16.2998 11.7114 16.2135 11.4108C16.1273 11.1103 15.9773 10.8319 15.7737 10.5946C15.5701 10.3573 15.3178 10.1666 15.0339 10.0356C14.75 9.90466 14.4412 9.83641 14.1285 9.83556H4.36437L9.78889 4.41104V6.53368H14.1125C16.6951 6.53368 19.1831 8.61386 19.5539 11.1698C19.67 11.9246 19.6254 12.6954 19.423 13.4318C19.2206 14.1681 18.865 14.8535 18.3794 15.4429C17.8939 16.0323 17.2893 16.5126 16.6053 16.8522C15.9213 17.1918 15.1733 17.3831 14.4102 17.4137L18.8495 21.8531C21.2047 20.2159 22.8956 17.7891 23.6157 15.0126C24.3358 12.2361 24.0375 9.29354 22.775 6.718C21.5124 4.14245 19.3691 2.10434 16.7333 0.972942C14.0975 -0.158454 11.1436 -0.308289 8.40685 0.550584C5.6701 1.40946 3.33152 3.22022 1.81482 5.65479C0.298128 8.08936 -0.296341 10.9867 0.139123 13.8218C0.574588 16.6569 2.01118 19.2423 4.1886 21.1094C6.36603 22.9766 9.14025 24.002 12.0086 24C13.2835 24.0017 14.5498 23.7927 15.7565 23.3814L9.78889 17.4501Z" fill="#59b5da"/>
</svg>
