<?xml version="1.0" standalone="no"?>
<!DOCTYPE svg PUBLIC "-//W3C//DTD SVG 20010904//EN"
 "http://www.w3.org/TR/2001/REC-SVG-20010904/DTD/svg10.dtd">
<svg version="1.0" xmlns="http://www.w3.org/2000/svg"
 width="700.000000pt" height="700.000000pt" viewBox="0 0 700.000000 700.000000"
 preserveAspectRatio="xMidYMid meet">
<metadata>
Created by potrace 1.11, written by Peter Selinger 2001-2013
</metadata>
<g transform="translate(0.000000,700.000000) scale(0.100000,-0.100000)"
fill="#000000" stroke="none">
<path d="M3278 6995 c-1 -1 -42 -5 -89 -9 -47 -4 -95 -8 -105 -10 -10 -2 -41
-7 -69 -10 -335 -43 -719 -161 -1045 -319 -931 -455 -1612 -1292 -1864 -2292
-21 -84 -32 -138 -61 -295 -1 -8 -6 -37 -9 -65 -4 -27 -9 -66 -11 -85 -27
-200 -27 -678 -1 -817 2 -10 7 -45 10 -78 4 -33 9 -67 11 -75 3 -8 7 -31 9
-50 10 -76 60 -282 103 -420 331 -1073 1140 -1908 2208 -2279 203 -71 523
-146 705 -165 265 -29 667 -29 860 0 254 38 618 123 653 154 4 4 -382 393
-858 865 -476 473 -865 863 -865 868 0 5 61 158 136 340 75 183 156 382 181
442 59 147 67 165 73 166 3 1 210 3 460 4 250 1 478 5 505 9 178 27 361 154
454 314 73 128 97 250 77 404 -25 196 -173 394 -359 478 -140 63 -40 60 -1641
60 -803 0 -1461 2 -1463 4 -3 2 1564 1576 1570 1576 1 0 2 -135 2 -301 0 -165
2 -304 5 -307 3 -4 295 -8 650 -8 749 0 809 -3 964 -45 23 -6 50 -13 61 -15
34 -6 226 -84 290 -117 149 -77 300 -189 428 -315 122 -119 270 -325 320 -442
8 -19 24 -55 35 -80 29 -62 64 -173 79 -250 38 -190 40 -470 3 -640 -87 -405
-302 -735 -639 -980 -38 -27 -71 -50 -74 -50 -3 0 -34 -17 -68 -38 -57 -33
-97 -53 -204 -98 -103 -43 -312 -90 -434 -98 -29 -2 -54 -5 -56 -8 -2 -2 285
-293 639 -647 l644 -644 33 23 c127 88 264 203 409 344 599 581 967 1354 1047
2201 15 156 6 696 -12 725 -2 3 -6 30 -9 60 -3 30 -8 64 -10 75 -2 11 -11 61
-21 110 -178 952 -770 1806 -1610 2321 -99 60 -343 188 -435 227 -322 136
-673 230 -985 263 -27 3 -63 8 -80 10 -33 6 -541 14 -547 9z"/>
</g>
</svg>
